<?xml version="1.0" standalone="no"?>
<!DOCTYPE svg PUBLIC "-//W3C//DTD SVG 1.0//EN" "http://www.w3.org/TR/2001/REC-SVG-20010904/DTD/svg10.dtd">
<svg xmlns="http://www.w3.org/2000/svg" xmlns:xlink="http://www.w3.org/1999/xlink" id="body_1" width="250" height="50">

<g transform="matrix(0.625 0 0 0.625 0 0)">
    <path transform="matrix(1 0 0 1 0 0)"  d="M22.875 12.953L14.5 13.003L14.5 39.668L14.5 66.333L41.167 66.333L67.833 66.333L67.833 39.667L67.833 13L58.333 13L48.833 13L48.833 13.697C 48.833 14.587 48.342 15.598 47.439 16.568L47.439 16.568L46.727 17.333L53.03 17.333C 57.96 17.333 59.334 17.379 59.336 17.542C 59.337 17.656 59.449 19.357 59.584 21.321C 59.719 23.285 59.787 24.935 59.735 24.988C 59.682 25.04 57.76 25.108 55.463 25.138L55.463 25.138L51.286 25.193L52.352 25.832C 57.35 28.829 60.667 35.285 59.423 39.594C 57.851 45.036 50.346 49.332 41.537 49.831C 40.124 49.911 38.94 50.004 38.906 50.038C 38.872 50.072 43.752 51.703 49.749 53.661C 55.747 55.62 60.728 57.268 60.818 57.324C 60.908 57.38 59.932 59.161 58.648 61.282L58.648 61.282L56.314 65.138L54.532 64.663C 53.552 64.401 47.202 62.754 40.421 61.001C 33.641 59.249 28.083 57.8 28.072 57.782C 27.982 57.641 26.633 44.312 26.701 44.243C 26.75 44.194 28.506 43.639 30.603 43.008C 39.054 40.469 44.44 39.169 46.515 39.167C 50.361 39.165 51.224 36.759 48.204 34.46C 45.401 32.326 39.307 33.277 35.732 36.406L35.732 36.406L34.881 37.151L29.33 34.248C 26.277 32.652 23.721 31.286 23.65 31.214C 23.46 31.021 27.498 28.623 30.747 27L30.747 27L33.583 25.583L29.079 25.64L24.574 25.697L23.454 21.539C 22.837 19.252 22.333 17.352 22.333 17.316C 22.333 17.164 45.253 17.354 45.306 17.506C 45.379 17.718 46.285 17.713 46.417 17.5C 46.476 17.404 46.316 17.333 46.036 17.333L46.036 17.333L45.552 17.333L46.039 16.375C 46.554 15.364 46.6 14.481 46.191 13.458L46.191 13.458L46.008 13L39.108 13C 35.313 13 31.993 12.978 31.729 12.951C 31.466 12.925 27.481 12.925 22.875 12.953" stroke="none" fill="#FBFB04" fill-rule="nonzero" />
    <path transform="matrix(1 0 0 1 0 0)"  d="M30.591 2.992L29.94 3.659L30.928 4.099C 31.472 4.341 33.379 5.172 35.167 5.946C 44.278 9.891 47.663 13.147 46.026 16.393L46.026 16.393L45.552 17.333L46.036 17.333C 46.316 17.333 46.476 17.404 46.417 17.5C 46.285 17.713 45.379 17.718 45.306 17.506C 45.253 17.354 22.333 17.164 22.333 17.316C 22.333 17.352 22.837 19.252 23.454 21.539L23.454 21.539L24.574 25.697L29.079 25.64L33.583 25.583L30.747 27C 27.498 28.623 23.46 31.021 23.65 31.214C 23.721 31.286 26.277 32.652 29.33 34.248L29.33 34.248L34.881 37.151L35.732 36.406C 39.307 33.277 45.401 32.326 48.204 34.46C 51.224 36.759 50.361 39.165 46.515 39.167C 44.44 39.169 39.054 40.469 30.603 43.008C 28.506 43.639 26.75 44.194 26.701 44.243C 26.633 44.312 27.982 57.641 28.072 57.782C 28.083 57.8 33.641 59.249 40.421 61.001C 47.202 62.754 53.552 64.401 54.532 64.663L54.532 64.663L56.314 65.138L58.648 61.282C 59.932 59.161 60.908 57.38 60.818 57.324C 60.728 57.268 55.747 55.62 49.749 53.661C 43.752 51.703 38.872 50.072 38.906 50.038C 38.94 50.004 40.124 49.911 41.537 49.831C 50.346 49.332 57.851 45.036 59.423 39.594C 60.667 35.285 57.35 28.829 52.352 25.832L52.352 25.832L51.286 25.193L55.463 25.138C 57.76 25.108 59.682 25.04 59.735 24.988C 59.787 24.935 59.719 23.285 59.584 21.321C 59.449 19.357 59.337 17.656 59.336 17.542C 59.334 17.379 57.96 17.333 53.03 17.333L53.03 17.333L46.727 17.333L47.439 16.568C 48.975 14.919 49.228 13.498 48.246 12.039C 46.446 9.367 40.307 5.726 33 2.997C 32.313 2.74 31.636 2.484 31.496 2.428C 31.332 2.363 31.008 2.565 30.591 2.992M80.878 18.661C 79.375 19.343 79.501 17.37 79.501 40.25C 79.501 59.958 79.509 60.429 79.827 60.95C 80.553 62.142 79.766 62.078 94.384 62.129C 108.646 62.178 108.514 62.186 109.448 61.252L109.448 61.252L110 60.7L110 57.667C 110 52.721 110.808 53.097 100.042 53.036L100.042 53.036L91.667 52.988L91.667 48.918L91.667 44.849L97.875 44.799C 106.242 44.733 105.888 44.925 105.965 40.417C 106.049 35.529 106.296 35.673 97.875 35.669L97.875 35.669L91.667 35.667L91.667 31.583L91.667 27.5L99.839 27.5C 108.79 27.5 108.709 27.508 109.549 26.51L109.549 26.51L110 25.974L110 22.91L110 19.845L109.508 19.285C 108.661 18.319 108.875 18.333 94.647 18.337C 82.125 18.341 81.554 18.354 80.878 18.661M233.819 18.487C 233.128 18.705 232.502 19.18 232.241 19.683C 231.817 20.504 231.887 60.229 232.314 60.93C 232.963 61.995 233.42 62.083 238.25 62.083C 243.019 62.083 243.252 62.039 244.051 60.966L244.051 60.966L244.387 60.515L244.019 53.216C 243.817 49.201 243.577 44.575 243.487 42.935C 243.397 41.296 243.348 39.93 243.377 39.9C 243.407 39.871 243.745 40.575 244.129 41.465C 244.512 42.355 246.555 47.093 248.667 51.993C 250.78 56.894 252.671 61.078 252.871 61.29C 253.578 62.042 254.64 62.194 258.79 62.136C 263.12 62.076 263.776 61.909 264.263 60.746C 264.613 59.908 264.619 20.607 264.269 19.77C 263.759 18.549 263.259 18.423 258.67 18.364C 254.007 18.304 253.443 18.392 252.643 19.303L252.643 19.303L252.123 19.895L252.233 22.406C 252.294 23.787 252.496 28.034 252.683 31.844C 252.869 35.654 252.998 39.081 252.969 39.459C 252.922 40.082 252.593 39.4 249.507 32.282C 243.64 18.749 243.989 19.486 243.181 18.917L243.181 18.917L242.472 18.417L238.361 18.384C 236.1 18.366 234.056 18.413 233.819 18.487M116 23.647C 115.215 23.815 114.761 24.078 114.346 24.605C 114.001 25.044 114 25.075 114 42.872L114 42.872L114 60.7L114.552 61.252C 115.487 62.187 115.626 62.197 126.062 62.119C 136.166 62.043 136.497 62.019 138.887 61.183C 141.15 60.391 142.964 58.826 143.889 56.867L143.889 56.867L144.417 55.75L144.47 50.784C 144.534 44.705 144.372 44.177 142.123 43.167L142.123 43.167L141.497 42.885L142.177 42.578C 144.326 41.609 144.538 40.887 144.47 34.745L144.47 34.745L144.417 29.917L143.898 28.833C 142.683 26.294 140.48 24.749 136.851 23.891C 135.646 23.607 117.197 23.39 116 23.647M158.167 23.669C 153.343 24.038 150.111 26.129 148.898 29.667C 148.421 31.056 148.411 54.539 148.886 56.039C 150.338 60.623 154.093 62.161 163.833 62.161C 172.995 62.161 176.344 60.973 178.291 57.033L178.291 57.033L178.917 55.767L178.917 42.833L178.917 29.899L178.291 28.634C 176.125 24.251 170.079 22.76 158.167 23.669M183.583 23.652C 181.825 24.085 181.667 24.451 181.667 28.083C 181.667 32.582 181.759 32.657 187.292 32.663L187.292 32.663L190.833 32.667L190.833 46.719C 190.833 62.508 190.717 61.063 192.047 61.79C 192.853 62.231 201.143 62.233 201.948 61.793C 203.072 61.178 203 62.214 203 46.713L203 46.713L203 32.667L206.439 32.667C 210.31 32.667 210.94 32.552 211.675 31.715L211.675 31.715L212.167 31.155L212.167 28.1C 212.167 23.123 213.701 23.59 197.25 23.556C 190.008 23.541 183.858 23.585 183.583 23.652M270.235 23.689C 269.401 23.877 268.543 24.679 268.415 25.39C 268.106 27.113 268.42 60.588 268.75 61.034C 269.622 62.213 269.157 62.18 283.873 62.129C 300.431 62.072 298.833 62.572 298.833 57.445L298.833 57.445L298.833 54.359L298.326 53.852C 297.505 53.031 297.174 53.002 288.625 53.001L288.625 53.001L280.667 53L280.667 50.343L280.667 47.685L286.792 47.634C 295.141 47.565 294.833 47.744 294.833 42.945L294.833 42.945L294.833 40.026L294.383 39.49C 293.564 38.517 293.436 38.5 286.755 38.5L286.755 38.5L280.667 38.5L280.667 35.583L280.667 32.667L288.84 32.667C 299.601 32.667 298.833 33.016 298.833 28.127L298.833 28.127L298.833 24.995L298.287 24.399C 297.895 23.971 297.528 23.761 296.995 23.658C 295.994 23.465 271.103 23.494 270.235 23.689M304.998 23.653C 304.15 23.82 303.395 24.316 303.069 24.922C 302.751 25.512 302.655 24.863 304.666 35.667C 305.135 38.188 305.734 41.412 305.997 42.833C 306.26 44.254 306.746 46.879 307.078 48.667C 307.41 50.454 307.939 53.304 308.253 55C 308.567 56.696 308.925 58.621 309.05 59.278C 309.547 61.898 309.929 62.067 315.54 62.137C 322.923 62.231 321.639 63.86 326.282 48.5C 326.961 46.254 327.559 44.304 327.611 44.167C 327.733 43.845 327.703 43.752 330.424 52.917C 333.389 62.906 332.677 62.167 339.333 62.167C 344.863 62.167 345.702 61.846 346.133 59.566C 346.314 58.61 347.624 51.804 350.35 37.667C 351.083 33.862 351.921 29.533 352.211 28.046L352.211 28.046L352.738 25.342L352.4 24.89C 351.485 23.663 350.855 23.515 346.583 23.515C 343.132 23.515 342.189 23.627 341.534 24.116C 340.552 24.849 340.544 24.884 339.822 31.25C 339.448 34.55 338.932 39.11 338.674 41.383C 338.416 43.657 338.175 45.548 338.136 45.586C 338.098 45.624 337.818 44.701 337.513 43.536C 337.208 42.37 336.367 39.167 335.645 36.417C 334.922 33.667 333.992 30.104 333.578 28.5C 332.318 23.617 332.277 23.583 327.667 23.583C 323.67 23.583 322.917 23.941 322.406 26.083C 322.341 26.358 321.557 29.358 320.664 32.75C 319.772 36.142 318.639 40.454 318.147 42.333C 317.323 45.479 317.242 45.697 317.13 45.083C 317.062 44.717 316.552 40.104 315.996 34.833C 314.92 24.65 314.958 24.853 313.99 24.137C 313.212 23.562 307.131 23.235 304.998 23.653M365.417 23.672C 360.512 24.068 357.235 26.194 356.149 29.682C 355.866 30.593 355.833 31.269 355.833 36.309L355.833 36.309L355.833 41.923L356.252 42.539C 357.044 43.704 360 44.597 373.042 47.61L373.042 47.61L374.167 47.87L374.167 50.401C 374.167 53.57 374.417 53.333 371.062 53.333C 367.713 53.333 367.833 53.412 367.833 51.227C 367.833 48.396 367.609 48.27 362.417 48.193C 358.025 48.127 357.106 48.253 356.334 49.025L356.334 49.025L355.833 49.526L355.833 52.248C 355.833 57.96 357.833 60.443 363.5 61.771C 364.958 62.112 373.833 62.283 376.518 62.02C 381.158 61.567 384.092 59.976 385.469 57.167C 386.278 55.515 386.351 54.76 386.298 48.527L386.298 48.527L386.25 42.864L385.732 42.224C 384.896 41.192 384.138 40.938 376.083 38.999C 371.867 37.984 368.285 37.113 368.125 37.065C 367.759 36.955 367.676 32.784 368.035 32.562C 368.339 32.374 372.654 32.286 373.417 32.452L373.417 32.452L374.083 32.597L374.167 34.365C 374.307 37.35 374.598 37.5 380.249 37.5C 386.208 37.5 386.339 37.414 386.324 33.529C 386.29 25.064 380.713 22.434 365.417 23.672M132.75 35.333L132.75 38.25L129.125 38.295L125.5 38.34L125.5 35.333L125.5 32.327L129.125 32.372L132.75 32.417L132.75 35.333L30.591 2.992zM167.327 32.822C 167.616 33.362 167.561 52.742 167.27 52.983C 167.111 53.116 166.052 53.16 163.812 53.129L163.812 53.129L160.583 53.083L160.54 43C 160.516 37.454 160.533 32.823 160.577 32.708C 160.728 32.312 167.112 32.42 167.327 32.822M132.75 50.417L132.75 53.25L129.125 53.295L125.5 53.34L125.5 50.417L125.5 47.493L129.125 47.538L132.75 47.583L132.75 50.417" stroke="none" fill="#050504" fill-rule="nonzero" />
</g>
</svg>