<?xml version="1.0" standalone="no"?>
<!DOCTYPE svg PUBLIC "-//W3C//DTD SVG 1.0//EN" "http://www.w3.org/TR/2001/REC-SVG-20010904/DTD/svg10.dtd">
<svg xmlns="http://www.w3.org/2000/svg" xmlns:xlink="http://www.w3.org/1999/xlink" id="body_1" width="300" height="60">

<g transform="matrix(0.75 0 0 0.75 0 0)">
    <path transform="matrix(1 0 0 1 0 0)"  d="M72.951 12.298L72.506 12.762L75.95 14.256C 83.313 17.451 85.851 19.856 84.506 22.367L84.506 22.367L84.178 22.978L84.547 23.031C 84.75 23.06 80.848 23.061 75.875 23.034C 68.546 22.993 66.834 23.025 66.837 23.2C 66.839 23.319 67.199 24.729 67.636 26.333L67.636 26.333L68.43 29.25L71.84 29.198L75.25 29.146L73.417 30.047C 71.569 30.954 67.922 33.055 67.771 33.299C 67.727 33.371 69.597 34.427 71.927 35.646L71.927 35.646L76.164 37.862L76.874 37.254C 79.196 35.266 83.452 34.385 85.52 35.465C 87.251 36.37 88.031 38.058 87.066 38.817C 86.608 39.177 86.498 39.201 84 39.484C 81.75 39.738 70.661 42.689 70.103 43.181C 70.018 43.256 70.191 45.45 70.507 48.319L70.507 48.319L71.058 53.327L71.904 53.568C 72.369 53.701 74.85 54.349 77.417 55.009C 84.605 56.857 88.068 57.752 90.231 58.321C 91.321 58.608 92.232 58.822 92.256 58.796C 92.663 58.361 95.667 53.104 95.563 53.01C 95.482 52.937 92.717 52.001 89.417 50.929C 86.117 49.858 82.442 48.658 81.25 48.264L81.25 48.264L79.083 47.546L80.917 47.426C 88.497 46.927 94.231 43.273 94.767 38.6C 95.099 35.708 92.522 31.338 89.375 29.458C 88.488 28.927 88.875 28.833 91.95 28.833L91.95 28.833L94.881 28.833L94.77 27.125C 94.709 26.185 94.613 24.873 94.557 24.208L94.557 24.208L94.454 23L89.813 23L85.172 23L85.831 22.129C 87.022 20.556 86.939 19.739 85.437 18.244C 83.537 16.351 80.265 14.462 75.799 12.679C 73.311 11.686 73.512 11.712 72.951 12.298" stroke="none" fill="#000000" fill-rule="nonzero" />
    <path transform="matrix(1 0 0 1 0 0)"  d="M63.125 13.793L55 13.837L55 39.835L55 65.833L80.917 65.833L106.833 65.833L106.833 39.833L106.833 13.833L92.708 13.834L78.583 13.834L80.208 14.662C 85.909 17.566 87.592 19.802 85.831 22.129L85.831 22.129L85.172 23L89.813 23L94.454 23L94.557 24.208C 94.613 24.873 94.709 26.185 94.77 27.125L94.77 27.125L94.881 28.833L91.95 28.833C 88.875 28.833 88.488 28.927 89.375 29.458C 92.522 31.338 95.099 35.708 94.767 38.6C 94.231 43.273 88.497 46.927 80.917 47.426L80.917 47.426L79.083 47.546L81.25 48.264C 82.442 48.658 86.117 49.858 89.417 50.929C 92.717 52.001 95.482 52.937 95.563 53.01C 95.667 53.104 92.663 58.361 92.256 58.796C 92.232 58.822 91.321 58.608 90.231 58.321C 88.068 57.752 84.605 56.857 77.417 55.009C 74.85 54.349 72.369 53.701 71.904 53.568L71.904 53.568L71.058 53.327L70.507 48.319C 70.191 45.45 70.018 43.256 70.103 43.181C 70.661 42.689 81.75 39.738 84 39.484C 86.498 39.201 86.608 39.177 87.066 38.817C 88.031 38.058 87.251 36.37 85.52 35.465C 83.452 34.385 79.196 35.266 76.874 37.254L76.874 37.254L76.164 37.862L71.927 35.646C 69.597 34.427 67.727 33.371 67.771 33.299C 67.922 33.055 71.569 30.954 73.417 30.047L73.417 30.047L75.25 29.146L71.84 29.198L68.43 29.25L67.636 26.333C 67.199 24.729 66.839 23.319 66.837 23.2C 66.834 23.025 68.546 22.993 75.875 23.034C 80.848 23.061 84.75 23.06 84.547 23.031L84.547 23.031L84.178 22.978L84.506 22.367C 85.734 20.074 83.362 17.541 77.59 14.985L77.59 14.985L75.083 13.874L73.167 13.812C 72.112 13.778 67.594 13.769 63.125 13.793M117.5 23.949C 117.362 24 117.081 24.196 116.875 24.384L116.875 24.384L116.5 24.725L116.5 40.181L116.5 55.637L117.013 56.069L117.526 56.5L127.779 56.5C 140.423 56.5 139.424 56.823 139.307 52.773L139.307 52.773L139.25 50.805L138.706 50.319L138.161 49.833L131.831 49.833L125.5 49.833L125.5 46.667L125.5 43.5L130.346 43.5L135.192 43.5L135.679 43.013L136.167 42.526L136.167 40.189C 136.167 37.959 136.148 37.83 135.765 37.384L135.765 37.384L135.363 36.917L130.431 36.868L125.5 36.819L125.5 33.75L125.5 30.682L131.792 30.633C 139.774 30.57 139.422 30.75 139.307 26.79C 139.252 24.916 139.232 24.822 138.788 24.378L138.788 24.378L138.326 23.917L128.038 23.886C 122.38 23.869 117.638 23.898 117.5 23.949M239.963 24.093C 239.713 24.229 239.431 24.483 239.338 24.659C 239.1 25.102 239.101 55.233 239.338 55.676C 239.726 56.4 240.283 56.5 243.921 56.5L243.921 56.5L247.359 56.5L247.869 55.99L248.379 55.48L248.269 53.365C 248.022 48.601 247.838 44.779 247.744 42.417L247.744 42.417L247.644 39.917L247.975 40.611C 248.156 40.993 249.71 44.576 251.428 48.572C 255.225 57.405 254.361 56.5 258.995 56.5L258.995 56.5L262.367 56.5L262.936 55.931L263.505 55.362L263.461 40.101L263.417 24.841L262.955 24.379L262.493 23.917L259.038 23.863C 254.014 23.784 254.103 23.707 254.33 27.951C 254.645 33.857 254.874 39.43 254.813 39.735C 254.778 39.913 253.275 36.652 251.394 32.318C 248.439 25.507 247.973 24.539 247.494 24.208C 246.801 23.73 240.801 23.638 239.963 24.093M145.003 27.853C 143.92 28.285 144 27.144 144 42.094L144 42.094L144 55.637L144.513 56.069L145.026 56.5L152.653 56.5C 162.132 56.5 162.924 56.36 165.096 54.307C 166.581 52.903 166.739 52.349 166.804 48.344C 166.875 43.913 166.55 42.8 165.079 42.431C 164.653 42.324 164.503 42 164.879 42C 165.251 42 166.367 40.961 166.604 40.393C 166.951 39.562 166.925 33.536 166.569 32.338C 165.856 29.934 163.926 28.475 160.724 27.917C 159.023 27.62 145.722 27.566 145.003 27.853M177.458 27.93C 174.835 28.404 173.057 29.584 172.132 31.462L172.132 31.462L171.583 32.576L171.535 41.736C 171.488 50.564 171.499 50.936 171.828 52.019C 172.469 54.13 174.348 55.647 177.072 56.253C 178.76 56.628 188.323 56.535 189.5 56.131C 191.705 55.376 193.075 54.309 193.84 52.75L193.84 52.75L194.25 51.917L194.297 42.395C 194.343 32.953 194.341 32.865 193.979 31.899C 193.223 29.879 191.151 28.404 188.372 27.908C 186.605 27.593 179.24 27.608 177.458 27.93M199.063 27.906C 198.117 28.318 198 28.668 198 31.083C 198 34.355 198.18 34.5 202.245 34.5L202.245 34.5L204.833 34.5L204.833 44.928C 204.833 51.761 204.892 55.466 205.005 55.676C 205.391 56.398 205.953 56.5 209.538 56.5C 213.014 56.5 213.405 56.433 213.872 55.76C 213.94 55.663 213.996 50.84 213.997 45.042L213.997 45.042L214 34.5L216.656 34.5C 220.776 34.5 220.833 34.454 220.833 31.156C 220.833 28.56 220.746 28.252 219.909 27.903C 219.092 27.561 199.848 27.565 199.063 27.906M269.002 27.959C 267.954 28.484 267.998 27.835 268.043 42.305L268.043 42.305L268.083 55.527L268.628 56.014L269.172 56.5L279.5 56.5L289.828 56.5L290.372 56.014L290.917 55.527L290.917 53.167L290.917 50.806L290.372 50.32L289.828 49.833L283.581 49.833L277.333 49.833L277.333 47.75L277.333 45.667L281.822 45.667C 288.014 45.667 287.833 45.769 287.833 42.25L287.833 42.25L287.833 39.896L287.323 39.406L286.812 38.917L282.073 38.868L277.333 38.819L277.333 36.659L277.333 34.5L283.425 34.5C 291.273 34.5 291.002 34.626 290.998 30.964C 290.993 27.423 291.845 27.667 279.5 27.667C 270.392 27.667 269.536 27.691 269.002 27.959M296.567 27.946C 295.413 28.521 295.412 28.553 296.416 33.929C 296.912 36.581 297.997 42.425 298.828 46.917C 300.495 55.927 300.436 55.698 301.205 56.166C 302.041 56.676 308.798 56.673 309.635 56.162C 310.339 55.733 310.31 55.809 312.342 49C 313.285 45.837 314.102 43.196 314.158 43.129C 314.213 43.063 315.034 45.613 315.982 48.796C 317.98 55.507 318.123 55.883 318.81 56.238C 319.631 56.663 326.385 56.62 327.097 56.186C 327.838 55.734 327.8 55.887 330.005 44.417C 331.115 38.642 332.206 32.992 332.428 31.862C 333.213 27.878 333.006 27.667 328.317 27.667C 325.239 27.667 324.578 27.805 324.088 28.553C 323.851 28.915 322.181 42.211 322.17 43.825C 322.165 44.4 321.921 44.064 321.689 43.167C 321.583 42.754 320.935 40.279 320.248 37.667C 319.562 35.054 318.765 32.017 318.477 30.917C 317.658 27.787 317.512 27.676 314.203 27.67C 310.541 27.664 310.883 27.138 308.413 36.564C 307.182 41.264 306.375 44.065 306.305 43.881C 306.242 43.717 305.845 40.292 305.423 36.27C 304.587 28.302 304.618 28.447 303.612 27.989C 302.672 27.563 297.399 27.53 296.567 27.946M342.846 27.921C 338.19 28.763 337 30.633 337 37.106C 337 42.997 336.416 42.417 344.268 44.332C 347.283 45.067 349.975 45.73 350.25 45.805L350.25 45.805L350.75 45.94L350.797 47.637C 350.866 50.097 350.95 50.019 348.283 49.963L348.283 49.963L346.083 49.917L346.034 48.608C 345.947 46.265 345.648 46.118 341.137 46.196C 338.273 46.246 337.986 46.278 337.553 46.602L337.553 46.602L337.083 46.955L337.086 49.436C 337.093 55.105 339.34 56.5 348.465 56.5C 354.782 56.5 356.092 56.202 358.096 54.307C 359.668 52.82 359.741 52.509 359.803 47.083C 359.877 40.595 360.551 41.277 352.034 39.226L352.034 39.226L345.989 37.77L346.036 36.093L346.083 34.417L348.32 34.37C 350.923 34.316 350.827 34.255 350.831 35.946C 350.835 37.936 351.303 38.167 355.333 38.167C 359.714 38.167 359.899 38.023 359.808 34.708C 359.697 30.637 357.918 28.648 353.737 27.919C 351.853 27.591 344.664 27.592 342.846 27.921M157.905 34.429C 158.111 34.635 158.167 35.077 158.167 36.5C 158.167 38.937 158.304 38.833 155.071 38.833L155.071 38.833L152.5 38.833L152.5 36.5L152.5 34.167L155.071 34.167C 157.187 34.167 157.689 34.213 157.905 34.429M185.627 42.125L185.67 49.833L183.085 49.833L180.5 49.833L180.5 42.194C 180.5 37.993 180.552 34.504 180.615 34.44C 180.679 34.377 181.823 34.345 183.157 34.371L183.157 34.371L185.583 34.417L185.627 42.125L63.125 13.793zM157.994 45.822C 158.178 46.166 158.235 49.294 158.066 49.736C 157.979 49.962 157.57 50 155.232 50L155.232 50L152.5 50L152.5 47.75L152.5 45.5L155.161 45.5C 157.621 45.5 157.835 45.524 157.994 45.822" stroke="none" fill="#FFFF00" fill-rule="nonzero" />
</g>
</svg>